<?xml version="1.0" encoding="utf-8"?>
<!-- Generator: Adobe Illustrator 23.0.1, SVG Export Plug-In . SVG Version: 6.00 Build 0)  -->
<svg version="1.1" id="Layer_1" xmlns="http://www.w3.org/2000/svg" xmlns:xlink="http://www.w3.org/1999/xlink" x="0px" y="0px"
	 viewBox="0 0 161.2 100" enable-background="new 0 0 161.2 100" xml:space="preserve">
<path fill="#E6E7E8" d="M145.6,91.2H15.3c-4.3,0-7.8-3.5-7.8-7.8V14.5c0-4.3,3.5-7.8,7.8-7.8h130.3c4.3,0,7.8,3.5,7.8,7.8v68.9
	C153.4,87.8,149.9,91.2,145.6,91.2z M76.4,80.6V49.5c0-2.1-1.7-3.8-3.8-3.8H17.9c-2.1,0-3.8,1.7-3.8,3.8v31.1c0,2.1,1.7,3.8,3.8,3.8
	h54.8C74.7,84.4,76.4,82.7,76.4,80.6z"/>
</svg>
