<?xml version="1.0" encoding="utf-8"?>
<!-- Generator: Adobe Illustrator 16.0.0, SVG Export Plug-In . SVG Version: 6.00 Build 0)  -->
<!DOCTYPE svg PUBLIC "-//W3C//DTD SVG 1.1//EN" "http://www.w3.org/Graphics/SVG/1.1/DTD/svg11.dtd">
<svg version="1.1" id="Layer_1" xmlns="http://www.w3.org/2000/svg" xmlns:xlink="http://www.w3.org/1999/xlink" x="0px" y="0px"
	 width="800px" height="600px" viewBox="0 0 800 600" enable-background="new 0 0 800 600" xml:space="preserve">
<g>
	<path fill="#E6E7E8" d="M602.52,71H195.48c-12.48,0-22.56,10.08-22.56,23.04v314.4c0,12.479,10.08,23.04,23.04,23.04h157.92v41.76
		H334.2c-23.52,0-42.72,19.2-42.72,42.72l0,0c0,6.24,5.28,11.521,11.52,11.521h193.44c6.239,0,11.52-5.28,11.52-11.521
		c0-23.52-19.2-42.72-42.72-42.72H445.56v-41.76H603.48c12.479,0,23.039-10.08,23.039-23.04V94.04C625.08,81.08,615,71,602.52,71z
		 M399,406.52c-8.64,0-15.84-7.199-15.84-15.84c0-8.64,7.2-15.84,15.84-15.84c8.64,0,15.84,7.2,15.84,15.84
		C414.84,399.32,407.64,406.52,399,406.52z M579,350.84H219V117.08h360V350.84z"/>
	<path fill="#E6E7E8" d="M423.96,219.32c2.4,0,5.28-0.96,7.2-2.88l30.24-30.24v15.84c0,5.76,4.319,10.08,10.08,10.08
		c5.76,0,10.079-4.32,10.079-10.08v-40.32c0-5.76-4.319-10.08-10.079-10.08h-40.32c-5.76,0-10.08,4.32-10.08,10.08
		c0,5.76,4.32,10.08,10.08,10.08H447l-30.24,30.24c-3.84,3.84-3.84,10.08,0,14.4C418.68,218.36,421.56,219.32,423.96,219.32z"/>
	<path fill="#E6E7E8" d="M327,316.279h40.32c5.76,0,10.08-4.319,10.08-10.079c0-5.76-4.32-10.08-10.08-10.08H351l30.24-30.24
		c3.84-3.84,3.84-10.08,0-14.4c-3.84-3.84-10.08-3.84-14.4,0l-30.24,30.24v-15.84c0-5.76-4.32-10.08-10.08-10.08
		c-5.76,0-10.08,4.32-10.08,10.08v40.32C316.92,311.96,321.24,316.279,327,316.279z"/>
	<path fill="#E6E7E8" d="M471,256.28c-5.76,0-10.08,4.32-10.08,10.08v15.84l-30.24-30.24c-3.84-3.84-10.08-3.84-14.399,0
		c-3.84,3.84-3.84,10.08,0,14.4l30.239,30.24h-15.84c-5.76,0-10.08,4.32-10.08,10.08s4.32,10.08,10.08,10.08H471
		c5.76,0,10.08-4.32,10.08-10.08v-40.32C481.08,260.6,476.76,256.28,471,256.28z"/>
	<path fill="#E6E7E8" d="M327,212.12c5.76,0,10.08-4.32,10.08-10.08V186.2l30.24,30.24c1.92,1.92,4.32,2.88,7.2,2.88
		s5.28-0.96,7.2-2.88c3.84-3.84,3.84-10.08,0-14.4L351,171.8h15.84c5.76,0,10.08-4.32,10.08-10.08c0-5.76-4.32-10.08-10.08-10.08
		H327c-5.76,0-10.08,4.32-10.08,10.08v40.32C316.92,207.8,321.24,212.12,327,212.12z"/>
</g>
</svg>
