<svg enable-background="new 0 0 800 600" height="600" viewBox="0 0 800 600" width="800" xmlns="http://www.w3.org/2000/svg"><g fill="#e6e7e8"><path d="m602.52 71h-407.04c-12.48 0-22.56 10.08-22.56 23.04v314.4c0 12.479 10.08 23.04 23.04 23.04h157.92v41.76h-19.68c-23.52 0-42.72 19.2-42.72 42.72 0 6.24 5.28 11.521 11.52 11.521h193.44c6.239 0 11.52-5.28 11.52-11.521 0-23.52-19.2-42.72-42.72-42.72h-19.68v-41.76h157.92c12.479 0 23.039-10.08 23.039-23.04v-314.4c-1.439-12.96-11.519-23.04-23.999-23.04zm-203.52 335.52c-8.64 0-15.84-7.199-15.84-15.84 0-8.64 7.2-15.84 15.84-15.84s15.84 7.2 15.84 15.84-7.2 15.84-15.84 15.84zm180-55.68h-360v-233.76h360z"/><path d="m423.96 219.32c2.4 0 5.28-.96 7.2-2.88l30.24-30.24v15.84c0 5.76 4.319 10.08 10.08 10.08 5.76 0 10.079-4.32 10.079-10.08v-40.32c0-5.76-4.319-10.08-10.079-10.08h-40.32c-5.76 0-10.08 4.32-10.08 10.08s4.32 10.08 10.08 10.08h15.84l-30.24 30.24c-3.84 3.84-3.84 10.08 0 14.4 1.92 1.92 4.8 2.88 7.2 2.88z"/><path d="m327 316.279h40.32c5.76 0 10.08-4.319 10.08-10.079s-4.32-10.08-10.08-10.08h-16.32l30.24-30.24c3.84-3.84 3.84-10.08 0-14.4-3.84-3.84-10.08-3.84-14.4 0l-30.24 30.24v-15.84c0-5.76-4.32-10.08-10.08-10.08s-10.08 4.32-10.08 10.08v40.32c.48 5.76 4.8 10.079 10.56 10.079z"/><path d="m471 256.28c-5.76 0-10.08 4.32-10.08 10.08v15.84l-30.24-30.24c-3.84-3.84-10.08-3.84-14.399 0-3.84 3.84-3.84 10.08 0 14.4l30.239 30.24h-15.84c-5.76 0-10.08 4.32-10.08 10.08s4.32 10.08 10.08 10.08h40.32c5.76 0 10.08-4.32 10.08-10.08v-40.32c0-5.76-4.32-10.08-10.08-10.08z"/><path d="m327 212.12c5.76 0 10.08-4.32 10.08-10.08v-15.84l30.24 30.24c1.92 1.92 4.32 2.88 7.2 2.88s5.28-.96 7.2-2.88c3.84-3.84 3.84-10.08 0-14.4l-30.72-30.24h15.84c5.76 0 10.08-4.32 10.08-10.08s-4.32-10.08-10.08-10.08h-39.84c-5.76 0-10.08 4.32-10.08 10.08v40.32c0 5.76 4.32 10.08 10.08 10.08z"/></g></svg>